<svg xmlns="http://www.w3.org/2000/svg" viewBox="0 0 64 64" width="64" height="64">
  <defs>
    <linearGradient id="accent" x1="0" y1="0" x2="1" y2="1">
      <stop offset="0%" stop-color="#e8b4b8"/>
      <stop offset="100%" stop-color="#d4a853"/>
    </linearGradient>
  </defs>
  <!-- Calligraphic "A" monogram -->
  <path d="M32 8 C28 8, 18 38, 14 54 C13.5 55.5, 14.5 56, 16 55.5 L20 54
           C21 50, 23 44, 26 38 L38 38
           C41 44, 43 50, 44 54 L48 55.5
           C49.5 56, 50.5 55.5, 50 54
           C46 38, 36 8, 32 8Z
           M28 33 L32 18 L36 33Z"
        fill="#e8b4b8"
        stroke="none"/>
  <!-- Gold decorative crossbar flourish -->
  <path d="M22 40 C26 37, 30 36.5, 32 37 C34 36.5, 38 37, 42 40"
        fill="none"
        stroke="#d4a853"
        stroke-width="1.5"
        stroke-linecap="round"/>
  <!-- Small gold dot accent -->
  <circle cx="32" cy="12" r="1.2" fill="#d4a853"/>
</svg>
